<svg width="59" height="59" viewBox="0 0 59 59" fill="none" xmlns="http://www.w3.org/2000/svg">
<path d="M59 37.0313V54.6063C59 55.7716 58.5371 56.8891 57.7131 57.7131C56.8892 58.5371 55.7716 59 54.6064 59H4.39362C3.22836 59 2.11082 58.5371 1.28686 57.7131C0.462898 56.8891 0 55.7716 0 54.6063V37.0313C0 36.5319 0.198384 36.0529 0.551511 35.6998C0.904638 35.3467 1.38358 35.1483 1.88298 35.1483C2.38238 35.1483 2.86132 35.3467 3.21445 35.6998C3.56757 36.0529 3.76596 36.5319 3.76596 37.0313V54.6063C3.76596 54.7727 3.83209 54.9324 3.94979 55.0501C4.0675 55.1678 4.22715 55.2339 4.39362 55.2339H54.6064C54.7728 55.2339 54.9325 55.1678 55.0502 55.0501C55.1679 54.9324 55.234 54.7727 55.234 54.6063V37.0313C55.234 36.5319 55.4324 36.0529 55.7856 35.6998C56.1387 35.3467 56.6176 35.1483 57.117 35.1483C57.6164 35.1483 58.0954 35.3467 58.4485 35.6998C58.8016 36.0529 59 36.5319 59 37.0313ZM18.2774 15.7656L27.617 6.4289V37.0313C27.617 37.5307 27.8154 38.0097 28.1685 38.3628C28.5217 38.7159 29.0006 38.9143 29.5 38.9143C29.9994 38.9143 30.4783 38.7159 30.8315 38.3628C31.1846 38.0097 31.383 37.5307 31.383 37.0313V6.4289L40.7225 15.7656C41.0795 16.0982 41.5516 16.2793 42.0394 16.2707C42.5273 16.2621 42.9927 16.0645 43.3377 15.7195C43.6827 15.3744 43.8803 14.909 43.8889 14.4212C43.8975 13.9333 43.7164 13.4612 43.3838 13.1042L30.8306 0.550698C30.4776 0.198068 29.999 0 29.5 0C29.001 0 28.5224 0.198068 28.1694 0.550698L15.6162 13.1042C15.2836 13.4612 15.1025 13.9333 15.1111 14.4212C15.1197 14.909 15.3173 15.3744 15.6623 15.7195C16.0073 16.0645 16.4727 16.2621 16.9606 16.2707C17.4484 16.2793 17.9205 16.0982 18.2774 15.7656Z" fill="#020202" fill-opacity="0.6"/>
</svg>
